<mxfile host="Electron" modified="2023-12-02T15:26:11.337Z" agent="Mozilla/5.0 (X11; Linux x86_64) AppleWebKit/537.36 (KHTML, like Gecko) draw.io/22.1.2 Chrome/114.0.5735.289 Electron/25.9.4 Safari/537.36" etag="0mh8ALtfmjTTz3Gu4G1Z" version="22.1.2" type="device">
  <diagram id="C5RBs43oDa-KdzZeNtuy" name="Page-1">
    <mxGraphModel dx="875" dy="603" grid="1" gridSize="10" guides="1" tooltips="1" connect="1" arrows="1" fold="1" page="1" pageScale="1" pageWidth="827" pageHeight="1169" math="0" shadow="0">
      <root>
        <mxCell id="WIyWlLk6GJQsqaUBKTNV-0" />
        <mxCell id="WIyWlLk6GJQsqaUBKTNV-1" parent="WIyWlLk6GJQsqaUBKTNV-0" />
        <mxCell id="NCgdvzW4AXt5p0Bj18l1-0" value="Найти второй максимум&amp;nbsp;" style="text;html=1;strokeColor=none;fillColor=none;align=center;verticalAlign=middle;whiteSpace=wrap;rounded=0;" vertex="1" parent="WIyWlLk6GJQsqaUBKTNV-1">
          <mxGeometry x="510" y="40" width="110" height="30" as="geometry" />
        </mxCell>
        <mxCell id="NCgdvzW4AXt5p0Bj18l1-7" value="" style="edgeStyle=orthogonalEdgeStyle;rounded=0;orthogonalLoop=1;jettySize=auto;html=1;" edge="1" parent="WIyWlLk6GJQsqaUBKTNV-1" source="NCgdvzW4AXt5p0Bj18l1-1" target="NCgdvzW4AXt5p0Bj18l1-2">
          <mxGeometry relative="1" as="geometry" />
        </mxCell>
        <mxCell id="NCgdvzW4AXt5p0Bj18l1-1" value="Начало" style="rounded=1;whiteSpace=wrap;html=1;" vertex="1" parent="WIyWlLk6GJQsqaUBKTNV-1">
          <mxGeometry x="90" y="25" width="120" height="60" as="geometry" />
        </mxCell>
        <mxCell id="NCgdvzW4AXt5p0Bj18l1-8" value="" style="edgeStyle=orthogonalEdgeStyle;rounded=0;orthogonalLoop=1;jettySize=auto;html=1;" edge="1" parent="WIyWlLk6GJQsqaUBKTNV-1" source="NCgdvzW4AXt5p0Bj18l1-2" target="NCgdvzW4AXt5p0Bj18l1-3">
          <mxGeometry relative="1" as="geometry" />
        </mxCell>
        <mxCell id="NCgdvzW4AXt5p0Bj18l1-2" value="a # array" style="shape=parallelogram;perimeter=parallelogramPerimeter;whiteSpace=wrap;html=1;fixedSize=1;" vertex="1" parent="WIyWlLk6GJQsqaUBKTNV-1">
          <mxGeometry x="90" y="120" width="120" height="60" as="geometry" />
        </mxCell>
        <mxCell id="NCgdvzW4AXt5p0Bj18l1-9" value="" style="edgeStyle=orthogonalEdgeStyle;rounded=0;orthogonalLoop=1;jettySize=auto;html=1;" edge="1" parent="WIyWlLk6GJQsqaUBKTNV-1" source="NCgdvzW4AXt5p0Bj18l1-3" target="NCgdvzW4AXt5p0Bj18l1-4">
          <mxGeometry relative="1" as="geometry" />
        </mxCell>
        <mxCell id="NCgdvzW4AXt5p0Bj18l1-3" value="max = a[0]&lt;br&gt;max2 = a[1]&lt;br&gt;i = 1" style="rounded=0;whiteSpace=wrap;html=1;" vertex="1" parent="WIyWlLk6GJQsqaUBKTNV-1">
          <mxGeometry x="90" y="220" width="120" height="60" as="geometry" />
        </mxCell>
        <mxCell id="NCgdvzW4AXt5p0Bj18l1-10" value="yes" style="edgeStyle=orthogonalEdgeStyle;rounded=0;orthogonalLoop=1;jettySize=auto;html=1;" edge="1" parent="WIyWlLk6GJQsqaUBKTNV-1" source="NCgdvzW4AXt5p0Bj18l1-4" target="NCgdvzW4AXt5p0Bj18l1-5">
          <mxGeometry relative="1" as="geometry">
            <Array as="points">
              <mxPoint x="410" y="250" />
              <mxPoint x="410" y="250" />
            </Array>
          </mxGeometry>
        </mxCell>
        <mxCell id="NCgdvzW4AXt5p0Bj18l1-4" value="max2 &amp;gt; max" style="rhombus;whiteSpace=wrap;html=1;" vertex="1" parent="WIyWlLk6GJQsqaUBKTNV-1">
          <mxGeometry x="280" y="205" width="100" height="90" as="geometry" />
        </mxCell>
        <mxCell id="NCgdvzW4AXt5p0Bj18l1-11" value="" style="edgeStyle=orthogonalEdgeStyle;rounded=0;orthogonalLoop=1;jettySize=auto;html=1;exitX=0.527;exitY=1.008;exitDx=0;exitDy=0;exitPerimeter=0;" edge="1" parent="WIyWlLk6GJQsqaUBKTNV-1" source="NCgdvzW4AXt5p0Bj18l1-5" target="NCgdvzW4AXt5p0Bj18l1-6">
          <mxGeometry relative="1" as="geometry">
            <Array as="points">
              <mxPoint x="529" y="320" />
              <mxPoint x="530" y="320" />
            </Array>
          </mxGeometry>
        </mxCell>
        <mxCell id="NCgdvzW4AXt5p0Bj18l1-5" value="max, max2 = max2, max" style="rounded=0;whiteSpace=wrap;html=1;" vertex="1" parent="WIyWlLk6GJQsqaUBKTNV-1">
          <mxGeometry x="450" y="220" width="150" height="60" as="geometry" />
        </mxCell>
        <mxCell id="NCgdvzW4AXt5p0Bj18l1-6" value="i &amp;lt; len(a) - 1" style="rhombus;whiteSpace=wrap;html=1;" vertex="1" parent="WIyWlLk6GJQsqaUBKTNV-1">
          <mxGeometry x="490" y="370" width="80" height="80" as="geometry" />
        </mxCell>
        <mxCell id="NCgdvzW4AXt5p0Bj18l1-15" value="no" style="endArrow=none;html=1;rounded=0;entryX=0.5;entryY=1;entryDx=0;entryDy=0;" edge="1" parent="WIyWlLk6GJQsqaUBKTNV-1" target="NCgdvzW4AXt5p0Bj18l1-4">
          <mxGeometry width="50" height="50" relative="1" as="geometry">
            <mxPoint x="330" y="340" as="sourcePoint" />
            <mxPoint x="440" y="350" as="targetPoint" />
          </mxGeometry>
        </mxCell>
        <mxCell id="NCgdvzW4AXt5p0Bj18l1-16" value="" style="endArrow=none;html=1;rounded=0;" edge="1" parent="WIyWlLk6GJQsqaUBKTNV-1">
          <mxGeometry width="50" height="50" relative="1" as="geometry">
            <mxPoint x="530" y="340" as="sourcePoint" />
            <mxPoint x="330" y="340" as="targetPoint" />
          </mxGeometry>
        </mxCell>
        <mxCell id="NCgdvzW4AXt5p0Bj18l1-19" value="yes" style="edgeStyle=orthogonalEdgeStyle;rounded=0;orthogonalLoop=1;jettySize=auto;html=1;" edge="1" parent="WIyWlLk6GJQsqaUBKTNV-1" source="NCgdvzW4AXt5p0Bj18l1-17" target="NCgdvzW4AXt5p0Bj18l1-18">
          <mxGeometry relative="1" as="geometry">
            <Array as="points">
              <mxPoint x="414" y="577.5" />
              <mxPoint x="414" y="577.5" />
            </Array>
          </mxGeometry>
        </mxCell>
        <mxCell id="NCgdvzW4AXt5p0Bj18l1-32" value="no" style="edgeStyle=orthogonalEdgeStyle;rounded=0;orthogonalLoop=1;jettySize=auto;html=1;" edge="1" parent="WIyWlLk6GJQsqaUBKTNV-1" source="NCgdvzW4AXt5p0Bj18l1-17" target="NCgdvzW4AXt5p0Bj18l1-20">
          <mxGeometry relative="1" as="geometry">
            <Array as="points">
              <mxPoint x="340" y="508" />
              <mxPoint x="340" y="508" />
            </Array>
          </mxGeometry>
        </mxCell>
        <mxCell id="NCgdvzW4AXt5p0Bj18l1-17" value="a[i+1] &amp;gt; max" style="rhombus;whiteSpace=wrap;html=1;" vertex="1" parent="WIyWlLk6GJQsqaUBKTNV-1">
          <mxGeometry x="364" y="457.5" width="100" height="100" as="geometry" />
        </mxCell>
        <mxCell id="NCgdvzW4AXt5p0Bj18l1-18" value="max = a[i+1]" style="rounded=0;whiteSpace=wrap;html=1;" vertex="1" parent="WIyWlLk6GJQsqaUBKTNV-1">
          <mxGeometry x="354" y="602.5" width="120" height="60" as="geometry" />
        </mxCell>
        <mxCell id="NCgdvzW4AXt5p0Bj18l1-22" value="yes" style="edgeStyle=orthogonalEdgeStyle;rounded=0;orthogonalLoop=1;jettySize=auto;html=1;" edge="1" parent="WIyWlLk6GJQsqaUBKTNV-1" source="NCgdvzW4AXt5p0Bj18l1-20" target="NCgdvzW4AXt5p0Bj18l1-21">
          <mxGeometry relative="1" as="geometry">
            <Array as="points">
              <mxPoint x="260" y="580" />
              <mxPoint x="260" y="580" />
            </Array>
          </mxGeometry>
        </mxCell>
        <mxCell id="NCgdvzW4AXt5p0Bj18l1-20" value="a[i+1] &amp;gt; max2" style="rhombus;whiteSpace=wrap;html=1;" vertex="1" parent="WIyWlLk6GJQsqaUBKTNV-1">
          <mxGeometry x="210" y="460" width="100" height="95" as="geometry" />
        </mxCell>
        <mxCell id="NCgdvzW4AXt5p0Bj18l1-21" value="max2 = a[i+1]" style="rounded=0;whiteSpace=wrap;html=1;" vertex="1" parent="WIyWlLk6GJQsqaUBKTNV-1">
          <mxGeometry x="200" y="602.5" width="120" height="60" as="geometry" />
        </mxCell>
        <mxCell id="NCgdvzW4AXt5p0Bj18l1-25" value="no" style="endArrow=none;html=1;rounded=0;entryX=0.5;entryY=0;entryDx=0;entryDy=0;" edge="1" parent="WIyWlLk6GJQsqaUBKTNV-1" target="NCgdvzW4AXt5p0Bj18l1-20">
          <mxGeometry width="50" height="50" relative="1" as="geometry">
            <mxPoint x="260" y="360" as="sourcePoint" />
            <mxPoint x="530" y="530" as="targetPoint" />
          </mxGeometry>
        </mxCell>
        <mxCell id="NCgdvzW4AXt5p0Bj18l1-26" value="" style="endArrow=none;html=1;rounded=0;" edge="1" parent="WIyWlLk6GJQsqaUBKTNV-1">
          <mxGeometry width="50" height="50" relative="1" as="geometry">
            <mxPoint x="530" y="360" as="sourcePoint" />
            <mxPoint x="260" y="360" as="targetPoint" />
          </mxGeometry>
        </mxCell>
        <mxCell id="NCgdvzW4AXt5p0Bj18l1-27" value="yes" style="endArrow=classic;html=1;rounded=0;exitX=0;exitY=0.5;exitDx=0;exitDy=0;entryX=0.5;entryY=0;entryDx=0;entryDy=0;" edge="1" parent="WIyWlLk6GJQsqaUBKTNV-1" source="NCgdvzW4AXt5p0Bj18l1-6" target="NCgdvzW4AXt5p0Bj18l1-17">
          <mxGeometry width="50" height="50" relative="1" as="geometry">
            <mxPoint x="480" y="490" as="sourcePoint" />
            <mxPoint x="530" y="440" as="targetPoint" />
            <Array as="points">
              <mxPoint x="450" y="410" />
              <mxPoint x="414" y="410" />
            </Array>
          </mxGeometry>
        </mxCell>
        <mxCell id="NCgdvzW4AXt5p0Bj18l1-29" value="" style="endArrow=classic;html=1;rounded=0;exitX=0.5;exitY=1;exitDx=0;exitDy=0;" edge="1" parent="WIyWlLk6GJQsqaUBKTNV-1" source="NCgdvzW4AXt5p0Bj18l1-21">
          <mxGeometry width="50" height="50" relative="1" as="geometry">
            <mxPoint x="210" y="690" as="sourcePoint" />
            <mxPoint x="260" y="360" as="targetPoint" />
            <Array as="points">
              <mxPoint x="260" y="700" />
              <mxPoint x="160" y="700" />
              <mxPoint x="160" y="360" />
            </Array>
          </mxGeometry>
        </mxCell>
        <mxCell id="NCgdvzW4AXt5p0Bj18l1-30" value="" style="endArrow=classic;html=1;rounded=0;exitX=0.5;exitY=1;exitDx=0;exitDy=0;" edge="1" parent="WIyWlLk6GJQsqaUBKTNV-1" source="NCgdvzW4AXt5p0Bj18l1-18">
          <mxGeometry width="50" height="50" relative="1" as="geometry">
            <mxPoint x="480" y="500" as="sourcePoint" />
            <mxPoint x="260" y="700" as="targetPoint" />
            <Array as="points">
              <mxPoint x="414" y="700" />
            </Array>
          </mxGeometry>
        </mxCell>
        <mxCell id="NCgdvzW4AXt5p0Bj18l1-35" value="" style="edgeStyle=orthogonalEdgeStyle;rounded=0;orthogonalLoop=1;jettySize=auto;html=1;" edge="1" parent="WIyWlLk6GJQsqaUBKTNV-1" source="NCgdvzW4AXt5p0Bj18l1-31" target="NCgdvzW4AXt5p0Bj18l1-34">
          <mxGeometry relative="1" as="geometry" />
        </mxCell>
        <mxCell id="NCgdvzW4AXt5p0Bj18l1-31" value="max2" style="shape=document;whiteSpace=wrap;html=1;boundedLbl=1;" vertex="1" parent="WIyWlLk6GJQsqaUBKTNV-1">
          <mxGeometry x="620" y="467.5" width="120" height="80" as="geometry" />
        </mxCell>
        <mxCell id="NCgdvzW4AXt5p0Bj18l1-33" value="no" style="endArrow=classic;html=1;rounded=0;entryX=0.5;entryY=0;entryDx=0;entryDy=0;exitX=1;exitY=0.5;exitDx=0;exitDy=0;" edge="1" parent="WIyWlLk6GJQsqaUBKTNV-1" source="NCgdvzW4AXt5p0Bj18l1-6" target="NCgdvzW4AXt5p0Bj18l1-31">
          <mxGeometry width="50" height="50" relative="1" as="geometry">
            <mxPoint x="480" y="460" as="sourcePoint" />
            <mxPoint x="530" y="410" as="targetPoint" />
            <Array as="points">
              <mxPoint x="680" y="410" />
            </Array>
          </mxGeometry>
        </mxCell>
        <mxCell id="NCgdvzW4AXt5p0Bj18l1-34" value="Конец" style="rounded=1;whiteSpace=wrap;html=1;" vertex="1" parent="WIyWlLk6GJQsqaUBKTNV-1">
          <mxGeometry x="620" y="602.5" width="120" height="60" as="geometry" />
        </mxCell>
      </root>
    </mxGraphModel>
  </diagram>
</mxfile>
